<?xml version="1.0" encoding="UTF-8"?>
<svg xmlns="http://www.w3.org/2000/svg" xmlns:xlink="http://www.w3.org/1999/xlink" width="288pt" height="99pt" viewBox="0 0 288 99" version="1.2">
<defs>
<clipPath id="clip1">
  <path d="M 118.71875 88 L 127 88 L 127 96.300781 L 118.71875 96.300781 Z M 118.71875 88 "/>
</clipPath>
<clipPath id="clip2">
  <path d="M 118.71875 45 L 127 45 L 127 54 L 118.71875 54 Z M 118.71875 45 "/>
</clipPath>
<clipPath id="clip3">
  <path d="M 118.71875 3.300781 L 127 3.300781 L 127 12 L 118.71875 12 Z M 118.71875 3.300781 "/>
</clipPath>
<clipPath id="clip4">
  <path d="M 161 88 L 169.71875 88 L 169.71875 96.300781 L 161 96.300781 Z M 161 88 "/>
</clipPath>
<clipPath id="clip5">
  <path d="M 161 45 L 169.71875 45 L 169.71875 54 L 161 54 Z M 161 45 "/>
</clipPath>
<clipPath id="clip6">
  <path d="M 161 3.300781 L 169.71875 3.300781 L 169.71875 12 L 161 12 Z M 161 3.300781 "/>
</clipPath>
</defs>
<g id="surface1">
<path style="fill:none;stroke-width:3.6;stroke-linecap:square;stroke-linejoin:miter;stroke:rgb(65.039062%,65.039062%,65.039062%);stroke-opacity:1;stroke-miterlimit:3.25;" d="M 81.09375 822.65625 L 833.164062 822.65625 " transform="matrix(0.1,0,0,-0.1,0,99)"/>
<path style="fill:none;stroke-width:3.6;stroke-linecap:square;stroke-linejoin:miter;stroke:rgb(65.039062%,65.039062%,65.039062%);stroke-opacity:1;stroke-miterlimit:3.25;" d="M 80.390625 815.507812 L 833.90625 664.804688 " transform="matrix(0.1,0,0,-0.1,0,99)"/>
<path style="fill:none;stroke-width:3.6;stroke-linecap:square;stroke-linejoin:miter;stroke:rgb(65.039062%,65.039062%,65.039062%);stroke-opacity:1;stroke-miterlimit:3.25;" d="M 73.125 799.921875 L 841.171875 185.46875 " transform="matrix(0.1,0,0,-0.1,0,99)"/>
<path style="fill:none;stroke-width:3.6;stroke-linecap:square;stroke-linejoin:miter;stroke:rgb(65.039062%,65.039062%,65.039062%);stroke-opacity:1;stroke-miterlimit:3.25;" d="M 80.78125 597.890625 L 833.515625 497.5 " transform="matrix(0.1,0,0,-0.1,0,99)"/>
<path style="fill:none;stroke-width:3.6;stroke-linecap:square;stroke-linejoin:miter;stroke:rgb(65.039062%,65.039062%,65.039062%);stroke-opacity:1;stroke-miterlimit:3.25;" d="M 81.015625 380.273438 L 833.28125 330.15625 " transform="matrix(0.1,0,0,-0.1,0,99)"/>
<path style="fill:none;stroke-width:3.6;stroke-linecap:square;stroke-linejoin:miter;stroke:rgb(65.039062%,65.039062%,65.039062%);stroke-opacity:1;stroke-miterlimit:3.25;" d="M 833.90625 320.585938 L 80.390625 169.882812 " transform="matrix(0.1,0,0,-0.1,0,99)"/>
<path style=" stroke:none;fill-rule:evenodd;fill:rgb(100%,0%,0%);fill-opacity:1;" d="M 7.109375 16.734375 C 7.109375 16.035156 6.832031 15.363281 6.335938 14.867188 C 5.84375 14.371094 5.167969 14.09375 4.46875 14.09375 C 3.769531 14.09375 3.097656 14.371094 2.601562 14.867188 C 2.105469 15.363281 1.828125 16.035156 1.828125 16.734375 C 1.828125 17.433594 2.105469 18.105469 2.601562 18.601562 C 3.097656 19.097656 3.769531 19.375 4.46875 19.375 C 5.167969 19.375 5.84375 19.097656 6.335938 18.601562 C 6.832031 18.105469 7.109375 17.433594 7.109375 16.734375 "/>
<path style="fill:none;stroke-width:3.6;stroke-linecap:square;stroke-linejoin:miter;stroke:rgb(30.004883%,30.004883%,30.004883%);stroke-opacity:1;stroke-miterlimit:3.25;" d="M 71.09375 822.65625 C 71.09375 829.648438 68.320312 836.367188 63.359375 841.328125 C 58.4375 846.289062 51.679688 849.0625 44.6875 849.0625 C 37.695312 849.0625 30.976562 846.289062 26.015625 841.328125 C 21.054688 836.367188 18.28125 829.648438 18.28125 822.65625 C 18.28125 815.664062 21.054688 808.945312 26.015625 803.984375 C 30.976562 799.023438 37.695312 796.25 44.6875 796.25 C 51.679688 796.25 58.4375 799.023438 63.359375 803.984375 C 68.320312 808.945312 71.09375 815.664062 71.09375 822.65625 Z M 71.09375 822.65625 " transform="matrix(0.1,0,0,-0.1,0,99)"/>
<path style=" stroke:none;fill-rule:evenodd;fill:rgb(0%,0%,0%);fill-opacity:1;" d="M 89.601562 16.734375 C 89.601562 16.035156 89.320312 15.363281 88.828125 14.867188 C 88.332031 14.371094 87.660156 14.09375 86.960938 14.09375 C 86.257812 14.09375 85.585938 14.371094 85.09375 14.867188 C 84.597656 15.363281 84.316406 16.035156 84.316406 16.734375 C 84.316406 17.433594 84.597656 18.105469 85.09375 18.601562 C 85.585938 19.097656 86.257812 19.375 86.960938 19.375 C 87.660156 19.375 88.332031 19.097656 88.828125 18.601562 C 89.320312 18.105469 89.601562 17.433594 89.601562 16.734375 "/>
<path style="fill:none;stroke-width:3.6;stroke-linecap:square;stroke-linejoin:miter;stroke:rgb(30.004883%,30.004883%,30.004883%);stroke-opacity:1;stroke-miterlimit:3.25;" d="M 896.015625 822.65625 C 896.015625 829.648438 893.203125 836.367188 888.28125 841.328125 C 883.320312 846.289062 876.601562 849.0625 869.609375 849.0625 C 862.578125 849.0625 855.859375 846.289062 850.9375 841.328125 C 845.976562 836.367188 843.164062 829.648438 843.164062 822.65625 C 843.164062 815.664062 845.976562 808.945312 850.9375 803.984375 C 855.859375 799.023438 862.578125 796.25 869.609375 796.25 C 876.601562 796.25 883.320312 799.023438 888.28125 803.984375 C 893.203125 808.945312 896.015625 815.664062 896.015625 822.65625 Z M 896.015625 822.65625 " transform="matrix(0.1,0,0,-0.1,0,99)"/>
<path style=" stroke:none;fill-rule:evenodd;fill:rgb(0%,0%,0%);fill-opacity:1;" d="M 89.601562 33.230469 C 89.601562 32.53125 89.320312 31.859375 88.828125 31.363281 C 88.332031 30.867188 87.660156 30.589844 86.960938 30.589844 C 86.257812 30.589844 85.585938 30.867188 85.09375 31.363281 C 84.597656 31.859375 84.316406 32.53125 84.316406 33.230469 C 84.316406 33.933594 84.597656 34.605469 85.09375 35.097656 C 85.585938 35.59375 86.257812 35.871094 86.960938 35.871094 C 87.660156 35.871094 88.332031 35.59375 88.828125 35.097656 C 89.320312 34.605469 89.601562 33.933594 89.601562 33.230469 "/>
<path style="fill:none;stroke-width:3.6;stroke-linecap:square;stroke-linejoin:miter;stroke:rgb(30.004883%,30.004883%,30.004883%);stroke-opacity:1;stroke-miterlimit:3.25;" d="M 896.015625 657.695312 C 896.015625 664.6875 893.203125 671.40625 888.28125 676.367188 C 883.320312 681.328125 876.601562 684.101562 869.609375 684.101562 C 862.578125 684.101562 855.859375 681.328125 850.9375 676.367188 C 845.976562 671.40625 843.164062 664.6875 843.164062 657.695312 C 843.164062 650.664062 845.976562 643.945312 850.9375 639.023438 C 855.859375 634.0625 862.578125 631.289062 869.609375 631.289062 C 876.601562 631.289062 883.320312 634.0625 888.28125 639.023438 C 893.203125 643.945312 896.015625 650.664062 896.015625 657.695312 Z M 896.015625 657.695312 " transform="matrix(0.1,0,0,-0.1,0,99)"/>
<path style=" stroke:none;fill-rule:evenodd;fill:rgb(0%,0%,0%);fill-opacity:1;" d="M 89.601562 82.726562 C 89.601562 82.023438 89.320312 81.351562 88.828125 80.859375 C 88.332031 80.363281 87.660156 80.085938 86.960938 80.085938 C 86.257812 80.085938 85.585938 80.363281 85.09375 80.859375 C 84.597656 81.351562 84.316406 82.023438 84.316406 82.726562 C 84.316406 83.425781 84.597656 84.097656 85.09375 84.59375 C 85.585938 85.089844 86.257812 85.367188 86.960938 85.367188 C 87.660156 85.367188 88.332031 85.089844 88.828125 84.59375 C 89.320312 84.097656 89.601562 83.425781 89.601562 82.726562 "/>
<path style="fill:none;stroke-width:3.6;stroke-linecap:square;stroke-linejoin:miter;stroke:rgb(30.004883%,30.004883%,30.004883%);stroke-opacity:1;stroke-miterlimit:3.25;" d="M 896.015625 162.734375 C 896.015625 169.765625 893.203125 176.484375 888.28125 181.40625 C 883.320312 186.367188 876.601562 189.140625 869.609375 189.140625 C 862.578125 189.140625 855.859375 186.367188 850.9375 181.40625 C 845.976562 176.484375 843.164062 169.765625 843.164062 162.734375 C 843.164062 155.742188 845.976562 149.023438 850.9375 144.0625 C 855.859375 139.101562 862.578125 136.328125 869.609375 136.328125 C 876.601562 136.328125 883.320312 139.101562 888.28125 144.0625 C 893.203125 149.023438 896.015625 155.742188 896.015625 162.734375 Z M 896.015625 162.734375 " transform="matrix(0.1,0,0,-0.1,0,99)"/>
<path style=" stroke:none;fill-rule:evenodd;fill:rgb(100%,0%,0%);fill-opacity:1;" d="M 7.109375 38.730469 C 7.109375 38.03125 6.832031 37.359375 6.335938 36.863281 C 5.84375 36.367188 5.167969 36.089844 4.46875 36.089844 C 3.769531 36.089844 3.097656 36.367188 2.601562 36.863281 C 2.105469 37.359375 1.828125 38.03125 1.828125 38.730469 C 1.828125 39.433594 2.105469 40.101562 2.601562 40.597656 C 3.097656 41.09375 3.769531 41.371094 4.46875 41.371094 C 5.167969 41.371094 5.84375 41.09375 6.335938 40.597656 C 6.832031 40.101562 7.109375 39.433594 7.109375 38.730469 "/>
<path style="fill:none;stroke-width:3.6;stroke-linecap:square;stroke-linejoin:miter;stroke:rgb(30.004883%,30.004883%,30.004883%);stroke-opacity:1;stroke-miterlimit:3.25;" d="M 71.09375 602.695312 C 71.09375 609.6875 68.320312 616.40625 63.359375 621.367188 C 58.4375 626.328125 51.679688 629.101562 44.6875 629.101562 C 37.695312 629.101562 30.976562 626.328125 26.015625 621.367188 C 21.054688 616.40625 18.28125 609.6875 18.28125 602.695312 C 18.28125 595.664062 21.054688 588.984375 26.015625 584.023438 C 30.976562 579.0625 37.695312 576.289062 44.6875 576.289062 C 51.679688 576.289062 58.4375 579.0625 63.359375 584.023438 C 68.320312 588.984375 71.09375 595.664062 71.09375 602.695312 Z M 71.09375 602.695312 " transform="matrix(0.1,0,0,-0.1,0,99)"/>
<path style=" stroke:none;fill-rule:evenodd;fill:rgb(0%,0%,0%);fill-opacity:1;" d="M 89.601562 49.730469 C 89.601562 49.027344 89.320312 48.359375 88.828125 47.863281 C 88.332031 47.367188 87.660156 47.089844 86.960938 47.089844 C 86.257812 47.089844 85.585938 47.367188 85.09375 47.863281 C 84.597656 48.359375 84.316406 49.027344 84.316406 49.730469 C 84.316406 50.429688 84.597656 51.101562 85.09375 51.597656 C 85.585938 52.09375 86.257812 52.371094 86.960938 52.371094 C 87.660156 52.371094 88.332031 52.09375 88.828125 51.597656 C 89.320312 51.101562 89.601562 50.429688 89.601562 49.730469 "/>
<path style="fill:none;stroke-width:3.6;stroke-linecap:square;stroke-linejoin:miter;stroke:rgb(30.004883%,30.004883%,30.004883%);stroke-opacity:1;stroke-miterlimit:3.25;" d="M 896.015625 492.695312 C 896.015625 499.726562 893.203125 506.40625 888.28125 511.367188 C 883.320312 516.328125 876.601562 519.101562 869.609375 519.101562 C 862.578125 519.101562 855.859375 516.328125 850.9375 511.367188 C 845.976562 506.40625 843.164062 499.726562 843.164062 492.695312 C 843.164062 485.703125 845.976562 478.984375 850.9375 474.023438 C 855.859375 469.0625 862.578125 466.289062 869.609375 466.289062 C 876.601562 466.289062 883.320312 469.0625 888.28125 474.023438 C 893.203125 478.984375 896.015625 485.703125 896.015625 492.695312 Z M 896.015625 492.695312 " transform="matrix(0.1,0,0,-0.1,0,99)"/>
<path style=" stroke:none;fill-rule:evenodd;fill:rgb(100%,0%,0%);fill-opacity:1;" d="M 7.109375 60.726562 C 7.109375 60.027344 6.832031 59.355469 6.335938 58.859375 C 5.84375 58.367188 5.167969 58.085938 4.46875 58.085938 C 3.769531 58.085938 3.097656 58.367188 2.601562 58.859375 C 2.105469 59.355469 1.828125 60.027344 1.828125 60.726562 C 1.828125 61.429688 2.105469 62.101562 2.601562 62.597656 C 3.097656 63.089844 3.769531 63.367188 4.46875 63.367188 C 5.167969 63.367188 5.84375 63.089844 6.335938 62.597656 C 6.832031 62.101562 7.109375 61.429688 7.109375 60.726562 "/>
<path style="fill:none;stroke-width:3.6;stroke-linecap:square;stroke-linejoin:miter;stroke:rgb(30.004883%,30.004883%,30.004883%);stroke-opacity:1;stroke-miterlimit:3.25;" d="M 71.09375 382.734375 C 71.09375 389.726562 68.320312 396.445312 63.359375 401.40625 C 58.4375 406.328125 51.679688 409.140625 44.6875 409.140625 C 37.695312 409.140625 30.976562 406.328125 26.015625 401.40625 C 21.054688 396.445312 18.28125 389.726562 18.28125 382.734375 C 18.28125 375.703125 21.054688 368.984375 26.015625 364.023438 C 30.976562 359.101562 37.695312 356.328125 44.6875 356.328125 C 51.679688 356.328125 58.4375 359.101562 63.359375 364.023438 C 68.320312 368.984375 71.09375 375.703125 71.09375 382.734375 Z M 71.09375 382.734375 " transform="matrix(0.1,0,0,-0.1,0,99)"/>
<path style=" stroke:none;fill-rule:evenodd;fill:rgb(0%,0%,0%);fill-opacity:1;" d="M 89.601562 66.226562 C 89.601562 65.527344 89.320312 64.855469 88.828125 64.359375 C 88.332031 63.863281 87.660156 63.585938 86.960938 63.585938 C 86.257812 63.585938 85.585938 63.863281 85.09375 64.359375 C 84.597656 64.855469 84.316406 65.527344 84.316406 66.226562 C 84.316406 66.929688 84.597656 67.601562 85.09375 68.09375 C 85.585938 68.589844 86.257812 68.867188 86.960938 68.867188 C 87.660156 68.867188 88.332031 68.589844 88.828125 68.09375 C 89.320312 67.601562 89.601562 66.929688 89.601562 66.226562 "/>
<path style="fill:none;stroke-width:3.6;stroke-linecap:square;stroke-linejoin:miter;stroke:rgb(30.004883%,30.004883%,30.004883%);stroke-opacity:1;stroke-miterlimit:3.25;" d="M 896.015625 327.734375 C 896.015625 334.726562 893.203125 341.445312 888.28125 346.40625 C 883.320312 351.367188 876.601562 354.140625 869.609375 354.140625 C 862.578125 354.140625 855.859375 351.367188 850.9375 346.40625 C 845.976562 341.445312 843.164062 334.726562 843.164062 327.734375 C 843.164062 320.703125 845.976562 313.984375 850.9375 309.0625 C 855.859375 304.101562 862.578125 301.328125 869.609375 301.328125 C 876.601562 301.328125 883.320312 304.101562 888.28125 309.0625 C 893.203125 313.984375 896.015625 320.703125 896.015625 327.734375 Z M 896.015625 327.734375 " transform="matrix(0.1,0,0,-0.1,0,99)"/>
<path style=" stroke:none;fill-rule:evenodd;fill:rgb(100%,0%,0%);fill-opacity:1;" d="M 7.109375 82.726562 C 7.109375 82.023438 6.832031 81.351562 6.335938 80.859375 C 5.84375 80.363281 5.167969 80.085938 4.46875 80.085938 C 3.769531 80.085938 3.097656 80.363281 2.601562 80.859375 C 2.105469 81.351562 1.828125 82.023438 1.828125 82.726562 C 1.828125 83.425781 2.105469 84.097656 2.601562 84.59375 C 3.097656 85.089844 3.769531 85.367188 4.46875 85.367188 C 5.167969 85.367188 5.84375 85.089844 6.335938 84.59375 C 6.832031 84.097656 7.109375 83.425781 7.109375 82.726562 "/>
<path style="fill:none;stroke-width:3.6;stroke-linecap:square;stroke-linejoin:miter;stroke:rgb(30.004883%,30.004883%,30.004883%);stroke-opacity:1;stroke-miterlimit:3.25;" d="M 71.09375 162.734375 C 71.09375 169.765625 68.320312 176.484375 63.359375 181.40625 C 58.4375 186.367188 51.679688 189.140625 44.6875 189.140625 C 37.695312 189.140625 30.976562 186.367188 26.015625 181.40625 C 21.054688 176.484375 18.28125 169.765625 18.28125 162.734375 C 18.28125 155.742188 21.054688 149.023438 26.015625 144.0625 C 30.976562 139.101562 37.695312 136.328125 44.6875 136.328125 C 51.679688 136.328125 58.4375 139.101562 63.359375 144.0625 C 68.320312 149.023438 71.09375 155.742188 71.09375 162.734375 Z M 71.09375 162.734375 " transform="matrix(0.1,0,0,-0.1,0,99)"/>
<path style="fill:none;stroke-width:3.6;stroke-linecap:square;stroke-linejoin:miter;stroke:rgb(65.039062%,65.039062%,65.039062%);stroke-opacity:1;stroke-miterlimit:3.25;" d="M 1261.71875 68.671875 L 1618.28125 68.671875 " transform="matrix(0.1,0,0,-0.1,0,99)"/>
<path style="fill:none;stroke-width:3.6;stroke-linecap:square;stroke-linejoin:miter;stroke:rgb(65.039062%,65.039062%,65.039062%);stroke-opacity:1;stroke-miterlimit:3.25;" d="M 1251.835938 92.5 L 1628.164062 468.867188 " transform="matrix(0.1,0,0,-0.1,0,99)"/>
<path style="fill:none;stroke-width:3.6;stroke-linecap:square;stroke-linejoin:miter;stroke:rgb(65.039062%,65.039062%,65.039062%);stroke-opacity:1;stroke-miterlimit:3.25;" d="M 1243.085938 98.828125 L 1636.914062 886.5625 " transform="matrix(0.1,0,0,-0.1,0,99)"/>
<path style="fill:none;stroke-width:3.6;stroke-linecap:square;stroke-linejoin:miter;stroke:rgb(65.039062%,65.039062%,65.039062%);stroke-opacity:1;stroke-miterlimit:3.25;" d="M 1251.835938 468.867188 L 1628.164062 92.5 " transform="matrix(0.1,0,0,-0.1,0,99)"/>
<path style="fill:none;stroke-width:3.6;stroke-linecap:square;stroke-linejoin:miter;stroke:rgb(65.039062%,65.039062%,65.039062%);stroke-opacity:1;stroke-miterlimit:3.25;" d="M 1261.71875 492.695312 L 1618.28125 492.695312 " transform="matrix(0.1,0,0,-0.1,0,99)"/>
<path style="fill:none;stroke-width:3.6;stroke-linecap:square;stroke-linejoin:miter;stroke:rgb(65.039062%,65.039062%,65.039062%);stroke-opacity:1;stroke-miterlimit:3.25;" d="M 1251.835938 516.523438 L 1628.164062 892.890625 " transform="matrix(0.1,0,0,-0.1,0,99)"/>
<path style="fill:none;stroke-width:3.6;stroke-linecap:square;stroke-linejoin:miter;stroke:rgb(65.039062%,65.039062%,65.039062%);stroke-opacity:1;stroke-miterlimit:3.25;" d="M 1243.085938 886.5625 L 1636.914062 98.828125 " transform="matrix(0.1,0,0,-0.1,0,99)"/>
<path style="fill:none;stroke-width:3.6;stroke-linecap:square;stroke-linejoin:miter;stroke:rgb(65.039062%,65.039062%,65.039062%);stroke-opacity:1;stroke-miterlimit:3.25;" d="M 1251.835938 892.890625 L 1628.164062 516.523438 " transform="matrix(0.1,0,0,-0.1,0,99)"/>
<path style="fill:none;stroke-width:3.6;stroke-linecap:square;stroke-linejoin:miter;stroke:rgb(65.039062%,65.039062%,65.039062%);stroke-opacity:1;stroke-miterlimit:3.25;" d="M 1261.71875 916.71875 L 1618.28125 916.71875 " transform="matrix(0.1,0,0,-0.1,0,99)"/>
<path style=" stroke:none;fill-rule:evenodd;fill:rgb(100%,0%,0%);fill-opacity:1;" d="M 125.171875 92.132812 C 125.171875 91.5 124.921875 90.898438 124.476562 90.457031 C 124.03125 90.011719 123.429688 89.761719 122.800781 89.761719 C 122.171875 89.761719 121.566406 90.011719 121.121094 90.457031 C 120.679688 90.898438 120.429688 91.5 120.429688 92.132812 C 120.429688 92.761719 120.679688 93.363281 121.121094 93.808594 C 121.566406 94.25 122.171875 94.5 122.800781 94.5 C 123.429688 94.5 124.03125 94.25 124.476562 93.808594 C 124.921875 93.363281 125.171875 92.761719 125.171875 92.132812 "/>
<g clip-path="url(#clip1)" clip-rule="nonzero">
<path style="fill:none;stroke-width:3.6;stroke-linecap:square;stroke-linejoin:miter;stroke:rgb(30.004883%,30.004883%,30.004883%);stroke-opacity:1;stroke-miterlimit:3.25;" d="M 1251.71875 68.671875 C 1251.71875 75 1249.21875 81.015625 1244.765625 85.429688 C 1240.3125 89.882812 1234.296875 92.382812 1228.007812 92.382812 C 1221.71875 92.382812 1215.664062 89.882812 1211.210938 85.429688 C 1206.796875 81.015625 1204.296875 75 1204.296875 68.671875 C 1204.296875 62.382812 1206.796875 56.367188 1211.210938 51.914062 C 1215.664062 47.5 1221.71875 45 1228.007812 45 C 1234.296875 45 1240.3125 47.5 1244.765625 51.914062 C 1249.21875 56.367188 1251.71875 62.382812 1251.71875 68.671875 Z M 1251.71875 68.671875 " transform="matrix(0.1,0,0,-0.1,0,99)"/>
</g>
<path style=" stroke:none;fill-rule:evenodd;fill:rgb(100%,0%,0%);fill-opacity:1;" d="M 125.171875 49.730469 C 125.171875 49.101562 124.921875 48.496094 124.476562 48.054688 C 124.03125 47.609375 123.429688 47.359375 122.800781 47.359375 C 122.171875 47.359375 121.566406 47.609375 121.121094 48.054688 C 120.679688 48.496094 120.429688 49.101562 120.429688 49.730469 C 120.429688 50.359375 120.679688 50.960938 121.121094 51.40625 C 121.566406 51.851562 122.171875 52.101562 122.800781 52.101562 C 123.429688 52.101562 124.03125 51.851562 124.476562 51.40625 C 124.921875 50.960938 125.171875 50.359375 125.171875 49.730469 "/>
<g clip-path="url(#clip2)" clip-rule="nonzero">
<path style="fill:none;stroke-width:3.6;stroke-linecap:square;stroke-linejoin:miter;stroke:rgb(30.004883%,30.004883%,30.004883%);stroke-opacity:1;stroke-miterlimit:3.25;" d="M 1251.71875 492.695312 C 1251.71875 498.984375 1249.21875 505.039062 1244.765625 509.453125 C 1240.3125 513.90625 1234.296875 516.40625 1228.007812 516.40625 C 1221.71875 516.40625 1215.664062 513.90625 1211.210938 509.453125 C 1206.796875 505.039062 1204.296875 498.984375 1204.296875 492.695312 C 1204.296875 486.40625 1206.796875 480.390625 1211.210938 475.9375 C 1215.664062 471.484375 1221.71875 468.984375 1228.007812 468.984375 C 1234.296875 468.984375 1240.3125 471.484375 1244.765625 475.9375 C 1249.21875 480.390625 1251.71875 486.40625 1251.71875 492.695312 Z M 1251.71875 492.695312 " transform="matrix(0.1,0,0,-0.1,0,99)"/>
</g>
<path style=" stroke:none;fill-rule:evenodd;fill:rgb(100%,0%,0%);fill-opacity:1;" d="M 125.171875 7.328125 C 125.171875 6.699219 124.921875 6.097656 124.476562 5.652344 C 124.03125 5.207031 123.429688 4.957031 122.800781 4.957031 C 122.171875 4.957031 121.566406 5.207031 121.121094 5.652344 C 120.679688 6.097656 120.429688 6.699219 120.429688 7.328125 C 120.429688 7.957031 120.679688 8.558594 121.121094 9.003906 C 121.566406 9.449219 122.171875 9.699219 122.800781 9.699219 C 123.429688 9.699219 124.03125 9.449219 124.476562 9.003906 C 124.921875 8.558594 125.171875 7.957031 125.171875 7.328125 "/>
<g clip-path="url(#clip3)" clip-rule="nonzero">
<path style="fill:none;stroke-width:3.6;stroke-linecap:square;stroke-linejoin:miter;stroke:rgb(30.004883%,30.004883%,30.004883%);stroke-opacity:1;stroke-miterlimit:3.25;" d="M 1251.71875 916.71875 C 1251.71875 923.007812 1249.21875 929.023438 1244.765625 933.476562 C 1240.3125 937.929688 1234.296875 940.429688 1228.007812 940.429688 C 1221.71875 940.429688 1215.664062 937.929688 1211.210938 933.476562 C 1206.796875 929.023438 1204.296875 923.007812 1204.296875 916.71875 C 1204.296875 910.429688 1206.796875 904.414062 1211.210938 899.960938 C 1215.664062 895.507812 1221.71875 893.007812 1228.007812 893.007812 C 1234.296875 893.007812 1240.3125 895.507812 1244.765625 899.960938 C 1249.21875 904.414062 1251.71875 910.429688 1251.71875 916.71875 Z M 1251.71875 916.71875 " transform="matrix(0.1,0,0,-0.1,0,99)"/>
</g>
<path style=" stroke:none;fill-rule:evenodd;fill:rgb(0%,0%,0%);fill-opacity:1;" d="M 167.570312 92.132812 C 167.570312 91.5 167.320312 90.898438 166.878906 90.457031 C 166.433594 90.011719 165.828125 89.761719 165.199219 89.761719 C 164.570312 89.761719 163.96875 90.011719 163.523438 90.457031 C 163.078125 90.898438 162.828125 91.5 162.828125 92.132812 C 162.828125 92.761719 163.078125 93.363281 163.523438 93.808594 C 163.96875 94.25 164.570312 94.5 165.199219 94.5 C 165.828125 94.5 166.433594 94.25 166.878906 93.808594 C 167.320312 93.363281 167.570312 92.761719 167.570312 92.132812 "/>
<g clip-path="url(#clip4)" clip-rule="nonzero">
<path style="fill:none;stroke-width:3.6;stroke-linecap:square;stroke-linejoin:miter;stroke:rgb(30.004883%,30.004883%,30.004883%);stroke-opacity:1;stroke-miterlimit:3.25;" d="M 1675.703125 68.671875 C 1675.703125 75 1673.203125 81.015625 1668.789062 85.429688 C 1664.335938 89.882812 1658.28125 92.382812 1651.992188 92.382812 C 1645.703125 92.382812 1639.6875 89.882812 1635.234375 85.429688 C 1630.78125 81.015625 1628.28125 75 1628.28125 68.671875 C 1628.28125 62.382812 1630.78125 56.367188 1635.234375 51.914062 C 1639.6875 47.5 1645.703125 45 1651.992188 45 C 1658.28125 45 1664.335938 47.5 1668.789062 51.914062 C 1673.203125 56.367188 1675.703125 62.382812 1675.703125 68.671875 Z M 1675.703125 68.671875 " transform="matrix(0.1,0,0,-0.1,0,99)"/>
</g>
<path style=" stroke:none;fill-rule:evenodd;fill:rgb(0%,0%,0%);fill-opacity:1;" d="M 167.570312 49.730469 C 167.570312 49.101562 167.320312 48.496094 166.878906 48.054688 C 166.433594 47.609375 165.828125 47.359375 165.199219 47.359375 C 164.570312 47.359375 163.96875 47.609375 163.523438 48.054688 C 163.078125 48.496094 162.828125 49.101562 162.828125 49.730469 C 162.828125 50.359375 163.078125 50.960938 163.523438 51.40625 C 163.96875 51.851562 164.570312 52.101562 165.199219 52.101562 C 165.828125 52.101562 166.433594 51.851562 166.878906 51.40625 C 167.320312 50.960938 167.570312 50.359375 167.570312 49.730469 "/>
<g clip-path="url(#clip5)" clip-rule="nonzero">
<path style="fill:none;stroke-width:3.6;stroke-linecap:square;stroke-linejoin:miter;stroke:rgb(30.004883%,30.004883%,30.004883%);stroke-opacity:1;stroke-miterlimit:3.25;" d="M 1675.703125 492.695312 C 1675.703125 498.984375 1673.203125 505.039062 1668.789062 509.453125 C 1664.335938 513.90625 1658.28125 516.40625 1651.992188 516.40625 C 1645.703125 516.40625 1639.6875 513.90625 1635.234375 509.453125 C 1630.78125 505.039062 1628.28125 498.984375 1628.28125 492.695312 C 1628.28125 486.40625 1630.78125 480.390625 1635.234375 475.9375 C 1639.6875 471.484375 1645.703125 468.984375 1651.992188 468.984375 C 1658.28125 468.984375 1664.335938 471.484375 1668.789062 475.9375 C 1673.203125 480.390625 1675.703125 486.40625 1675.703125 492.695312 Z M 1675.703125 492.695312 " transform="matrix(0.1,0,0,-0.1,0,99)"/>
</g>
<path style=" stroke:none;fill-rule:evenodd;fill:rgb(0%,0%,0%);fill-opacity:1;" d="M 167.570312 7.328125 C 167.570312 6.699219 167.320312 6.097656 166.878906 5.652344 C 166.433594 5.207031 165.828125 4.957031 165.199219 4.957031 C 164.570312 4.957031 163.96875 5.207031 163.523438 5.652344 C 163.078125 6.097656 162.828125 6.699219 162.828125 7.328125 C 162.828125 7.957031 163.078125 8.558594 163.523438 9.003906 C 163.96875 9.449219 164.570312 9.699219 165.199219 9.699219 C 165.828125 9.699219 166.433594 9.449219 166.878906 9.003906 C 167.320312 8.558594 167.570312 7.957031 167.570312 7.328125 "/>
<g clip-path="url(#clip6)" clip-rule="nonzero">
<path style="fill:none;stroke-width:3.6;stroke-linecap:square;stroke-linejoin:miter;stroke:rgb(30.004883%,30.004883%,30.004883%);stroke-opacity:1;stroke-miterlimit:3.25;" d="M 1675.703125 916.71875 C 1675.703125 923.007812 1673.203125 929.023438 1668.789062 933.476562 C 1664.335938 937.929688 1658.28125 940.429688 1651.992188 940.429688 C 1645.703125 940.429688 1639.6875 937.929688 1635.234375 933.476562 C 1630.78125 929.023438 1628.28125 923.007812 1628.28125 916.71875 C 1628.28125 910.429688 1630.78125 904.414062 1635.234375 899.960938 C 1639.6875 895.507812 1645.703125 893.007812 1651.992188 893.007812 C 1658.28125 893.007812 1664.335938 895.507812 1668.789062 899.960938 C 1673.203125 904.414062 1675.703125 910.429688 1675.703125 916.71875 Z M 1675.703125 916.71875 " transform="matrix(0.1,0,0,-0.1,0,99)"/>
</g>
<path style="fill:none;stroke-width:3.6;stroke-linecap:square;stroke-linejoin:miter;stroke:rgb(65.039062%,65.039062%,65.039062%);stroke-opacity:1;stroke-miterlimit:3.25;" d="M 2258.789062 328.632812 L 2040.546875 110.390625 " transform="matrix(0.1,0,0,-0.1,0,99)"/>
<path style="fill:none;stroke-width:3.6;stroke-linecap:square;stroke-linejoin:miter;stroke:rgb(65.039062%,65.039062%,65.039062%);stroke-opacity:1;stroke-miterlimit:3.25;" d="M 2286.367188 395.195312 L 2286.367188 590.195312 " transform="matrix(0.1,0,0,-0.1,0,99)"/>
<path style="fill:none;stroke-width:3.6;stroke-linecap:square;stroke-linejoin:miter;stroke:rgb(65.039062%,65.039062%,65.039062%);stroke-opacity:1;stroke-miterlimit:3.25;" d="M 2325.351562 356.210938 L 2520.351562 356.210938 " transform="matrix(0.1,0,0,-0.1,0,99)"/>
<path style="fill:none;stroke-width:3.6;stroke-linecap:square;stroke-linejoin:miter;stroke:rgb(65.039062%,65.039062%,65.039062%);stroke-opacity:1;stroke-miterlimit:3.25;" d="M 2012.96875 121.796875 L 2012.96875 863.59375 " transform="matrix(0.1,0,0,-0.1,0,99)"/>
<path style="fill:none;stroke-width:3.6;stroke-linecap:square;stroke-linejoin:miter;stroke:rgb(65.039062%,65.039062%,65.039062%);stroke-opacity:1;stroke-miterlimit:3.25;" d="M 2051.953125 82.8125 L 2793.75 82.8125 " transform="matrix(0.1,0,0,-0.1,0,99)"/>
<path style="fill:none;stroke-width:3.6;stroke-linecap:square;stroke-linejoin:miter;stroke:rgb(65.039062%,65.039062%,65.039062%);stroke-opacity:1;stroke-miterlimit:3.25;" d="M 2258.789062 656.757812 L 2040.546875 875 " transform="matrix(0.1,0,0,-0.1,0,99)"/>
<path style="fill:none;stroke-width:3.6;stroke-linecap:square;stroke-linejoin:miter;stroke:rgb(65.039062%,65.039062%,65.039062%);stroke-opacity:1;stroke-miterlimit:3.25;" d="M 2325.351562 629.179688 L 2520.351562 629.179688 " transform="matrix(0.1,0,0,-0.1,0,99)"/>
<path style="fill:none;stroke-width:3.6;stroke-linecap:square;stroke-linejoin:miter;stroke:rgb(65.039062%,65.039062%,65.039062%);stroke-opacity:1;stroke-miterlimit:3.25;" d="M 2051.953125 902.578125 L 2793.75 902.578125 " transform="matrix(0.1,0,0,-0.1,0,99)"/>
<path style="fill:none;stroke-width:3.6;stroke-linecap:square;stroke-linejoin:miter;stroke:rgb(65.039062%,65.039062%,65.039062%);stroke-opacity:1;stroke-miterlimit:3.25;" d="M 2586.914062 328.632812 L 2805.15625 110.390625 " transform="matrix(0.1,0,0,-0.1,0,99)"/>
<path style="fill:none;stroke-width:3.6;stroke-linecap:square;stroke-linejoin:miter;stroke:rgb(65.039062%,65.039062%,65.039062%);stroke-opacity:1;stroke-miterlimit:3.25;" d="M 2559.335938 395.195312 L 2559.335938 590.195312 " transform="matrix(0.1,0,0,-0.1,0,99)"/>
<path style="fill:none;stroke-width:3.6;stroke-linecap:square;stroke-linejoin:miter;stroke:rgb(65.039062%,65.039062%,65.039062%);stroke-opacity:1;stroke-miterlimit:3.25;" d="M 2832.734375 121.796875 L 2832.734375 863.59375 " transform="matrix(0.1,0,0,-0.1,0,99)"/>
<path style="fill:none;stroke-width:3.6;stroke-linecap:square;stroke-linejoin:miter;stroke:rgb(65.039062%,65.039062%,65.039062%);stroke-opacity:1;stroke-miterlimit:3.25;" d="M 2586.914062 656.757812 L 2805.15625 875 " transform="matrix(0.1,0,0,-0.1,0,99)"/>
<path style=" stroke:none;fill-rule:evenodd;fill:rgb(100%,0%,0%);fill-opacity:1;" d="M 231.535156 63.378906 C 231.535156 62.609375 231.230469 61.871094 230.6875 61.328125 C 230.144531 60.785156 229.40625 60.480469 228.636719 60.480469 C 227.867188 60.480469 227.132812 60.785156 226.589844 61.328125 C 226.042969 61.871094 225.738281 62.609375 225.738281 63.378906 C 225.738281 64.148438 226.042969 64.886719 226.589844 65.429688 C 227.132812 65.972656 227.867188 66.277344 228.636719 66.277344 C 229.40625 66.277344 230.144531 65.972656 230.6875 65.429688 C 231.230469 64.886719 231.535156 64.148438 231.535156 63.378906 "/>
<path style="fill:none;stroke-width:3.6;stroke-linecap:square;stroke-linejoin:miter;stroke:rgb(30.004883%,30.004883%,30.004883%);stroke-opacity:1;stroke-miterlimit:3.25;" d="M 2315.351562 356.210938 C 2315.351562 363.90625 2312.304688 371.289062 2306.875 376.71875 C 2301.445312 382.148438 2294.0625 385.195312 2286.367188 385.195312 C 2278.671875 385.195312 2271.328125 382.148438 2265.898438 376.71875 C 2260.429688 371.289062 2257.382812 363.90625 2257.382812 356.210938 C 2257.382812 348.515625 2260.429688 341.132812 2265.898438 335.703125 C 2271.328125 330.273438 2278.671875 327.226562 2286.367188 327.226562 C 2294.0625 327.226562 2301.445312 330.273438 2306.875 335.703125 C 2312.304688 341.132812 2315.351562 348.515625 2315.351562 356.210938 Z M 2315.351562 356.210938 " transform="matrix(0.1,0,0,-0.1,0,99)"/>
<path style=" stroke:none;fill-rule:evenodd;fill:rgb(0%,0%,0%);fill-opacity:1;" d="M 204.195312 90.71875 C 204.195312 89.949219 203.890625 89.210938 203.347656 88.667969 C 202.804688 88.125 202.066406 87.820312 201.296875 87.820312 C 200.53125 87.820312 199.792969 88.125 199.25 88.667969 C 198.703125 89.210938 198.398438 89.949219 198.398438 90.71875 C 198.398438 91.484375 198.703125 92.222656 199.25 92.765625 C 199.792969 93.308594 200.53125 93.617188 201.296875 93.617188 C 202.066406 93.617188 202.804688 93.308594 203.347656 92.765625 C 203.890625 92.222656 204.195312 91.484375 204.195312 90.71875 "/>
<path style="fill:none;stroke-width:3.6;stroke-linecap:square;stroke-linejoin:miter;stroke:rgb(30.004883%,30.004883%,30.004883%);stroke-opacity:1;stroke-miterlimit:3.25;" d="M 2041.953125 82.8125 C 2041.953125 90.507812 2038.90625 97.890625 2033.476562 103.320312 C 2028.046875 108.75 2020.664062 111.796875 2012.96875 111.796875 C 2005.3125 111.796875 1997.929688 108.75 1992.5 103.320312 C 1987.03125 97.890625 1983.984375 90.507812 1983.984375 82.8125 C 1983.984375 75.15625 1987.03125 67.773438 1992.5 62.34375 C 1997.929688 56.914062 2005.3125 53.828125 2012.96875 53.828125 C 2020.664062 53.828125 2028.046875 56.914062 2033.476562 62.34375 C 2038.90625 67.773438 2041.953125 75.15625 2041.953125 82.8125 Z M 2041.953125 82.8125 " transform="matrix(0.1,0,0,-0.1,0,99)"/>
<path style=" stroke:none;fill-rule:evenodd;fill:rgb(0%,0%,0%);fill-opacity:1;" d="M 231.535156 36.082031 C 231.535156 35.3125 231.230469 34.574219 230.6875 34.03125 C 230.144531 33.488281 229.40625 33.183594 228.636719 33.183594 C 227.867188 33.183594 227.132812 33.488281 226.589844 34.03125 C 226.042969 34.574219 225.738281 35.3125 225.738281 36.082031 C 225.738281 36.851562 226.042969 37.585938 226.589844 38.128906 C 227.132812 38.671875 227.867188 38.980469 228.636719 38.980469 C 229.40625 38.980469 230.144531 38.671875 230.6875 38.128906 C 231.230469 37.585938 231.535156 36.851562 231.535156 36.082031 "/>
<path style="fill:none;stroke-width:3.6;stroke-linecap:square;stroke-linejoin:miter;stroke:rgb(30.004883%,30.004883%,30.004883%);stroke-opacity:1;stroke-miterlimit:3.25;" d="M 2315.351562 629.179688 C 2315.351562 636.875 2312.304688 644.257812 2306.875 649.6875 C 2301.445312 655.117188 2294.0625 658.164062 2286.367188 658.164062 C 2278.671875 658.164062 2271.328125 655.117188 2265.898438 649.6875 C 2260.429688 644.257812 2257.382812 636.875 2257.382812 629.179688 C 2257.382812 621.484375 2260.429688 614.140625 2265.898438 608.710938 C 2271.328125 603.28125 2278.671875 600.195312 2286.367188 600.195312 C 2294.0625 600.195312 2301.445312 603.28125 2306.875 608.710938 C 2312.304688 614.140625 2315.351562 621.484375 2315.351562 629.179688 Z M 2315.351562 629.179688 " transform="matrix(0.1,0,0,-0.1,0,99)"/>
<path style=" stroke:none;fill-rule:evenodd;fill:rgb(100%,0%,0%);fill-opacity:1;" d="M 204.195312 8.742188 C 204.195312 7.972656 203.890625 7.238281 203.347656 6.691406 C 202.804688 6.148438 202.066406 5.84375 201.296875 5.84375 C 200.53125 5.84375 199.792969 6.148438 199.25 6.691406 C 198.703125 7.238281 198.398438 7.972656 198.398438 8.742188 C 198.398438 9.511719 198.703125 10.246094 199.25 10.792969 C 199.792969 11.335938 200.53125 11.640625 201.296875 11.640625 C 202.066406 11.640625 202.804688 11.335938 203.347656 10.792969 C 203.890625 10.246094 204.195312 9.511719 204.195312 8.742188 "/>
<path style="fill:none;stroke-width:3.6;stroke-linecap:square;stroke-linejoin:miter;stroke:rgb(30.004883%,30.004883%,30.004883%);stroke-opacity:1;stroke-miterlimit:3.25;" d="M 2041.953125 902.578125 C 2041.953125 910.273438 2038.90625 917.617188 2033.476562 923.085938 C 2028.046875 928.515625 2020.664062 931.5625 2012.96875 931.5625 C 2005.3125 931.5625 1997.929688 928.515625 1992.5 923.085938 C 1987.03125 917.617188 1983.984375 910.273438 1983.984375 902.578125 C 1983.984375 894.882812 1987.03125 887.539062 1992.5 882.070312 C 1997.929688 876.640625 2005.3125 873.59375 2012.96875 873.59375 C 2020.664062 873.59375 2028.046875 876.640625 2033.476562 882.070312 C 2038.90625 887.539062 2041.953125 894.882812 2041.953125 902.578125 Z M 2041.953125 902.578125 " transform="matrix(0.1,0,0,-0.1,0,99)"/>
<path style=" stroke:none;fill-rule:evenodd;fill:rgb(0%,0%,0%);fill-opacity:1;" d="M 258.832031 63.378906 C 258.832031 62.609375 258.527344 61.871094 257.984375 61.328125 C 257.441406 60.785156 256.703125 60.480469 255.933594 60.480469 C 255.164062 60.480469 254.429688 60.785156 253.886719 61.328125 C 253.34375 61.871094 253.035156 62.609375 253.035156 63.378906 C 253.035156 64.148438 253.34375 64.886719 253.886719 65.429688 C 254.429688 65.972656 255.164062 66.277344 255.933594 66.277344 C 256.703125 66.277344 257.441406 65.972656 257.984375 65.429688 C 258.527344 64.886719 258.832031 64.148438 258.832031 63.378906 "/>
<path style="fill:none;stroke-width:3.6;stroke-linecap:square;stroke-linejoin:miter;stroke:rgb(30.004883%,30.004883%,30.004883%);stroke-opacity:1;stroke-miterlimit:3.25;" d="M 2588.320312 356.210938 C 2588.320312 363.90625 2585.273438 371.289062 2579.84375 376.71875 C 2574.414062 382.148438 2567.03125 385.195312 2559.335938 385.195312 C 2551.640625 385.195312 2544.296875 382.148438 2538.867188 376.71875 C 2533.4375 371.289062 2530.351562 363.90625 2530.351562 356.210938 C 2530.351562 348.515625 2533.4375 341.132812 2538.867188 335.703125 C 2544.296875 330.273438 2551.640625 327.226562 2559.335938 327.226562 C 2567.03125 327.226562 2574.414062 330.273438 2579.84375 335.703125 C 2585.273438 341.132812 2588.320312 348.515625 2588.320312 356.210938 Z M 2588.320312 356.210938 " transform="matrix(0.1,0,0,-0.1,0,99)"/>
<path style=" stroke:none;fill-rule:evenodd;fill:rgb(100%,0%,0%);fill-opacity:1;" d="M 286.171875 90.71875 C 286.171875 89.949219 285.867188 89.210938 285.324219 88.667969 C 284.777344 88.125 284.042969 87.820312 283.273438 87.820312 C 282.503906 87.820312 281.765625 88.125 281.222656 88.667969 C 280.679688 89.210938 280.375 89.949219 280.375 90.71875 C 280.375 91.484375 280.679688 92.222656 281.222656 92.765625 C 281.765625 93.308594 282.503906 93.617188 283.273438 93.617188 C 284.042969 93.617188 284.777344 93.308594 285.324219 92.765625 C 285.867188 92.222656 286.171875 91.484375 286.171875 90.71875 "/>
<path style="fill:none;stroke-width:3.6;stroke-linecap:square;stroke-linejoin:miter;stroke:rgb(30.004883%,30.004883%,30.004883%);stroke-opacity:1;stroke-miterlimit:3.25;" d="M 2861.71875 82.8125 C 2861.71875 90.507812 2858.671875 97.890625 2853.242188 103.320312 C 2847.773438 108.75 2840.429688 111.796875 2832.734375 111.796875 C 2825.039062 111.796875 2817.65625 108.75 2812.226562 103.320312 C 2806.796875 97.890625 2803.75 90.507812 2803.75 82.8125 C 2803.75 75.15625 2806.796875 67.773438 2812.226562 62.34375 C 2817.65625 56.914062 2825.039062 53.828125 2832.734375 53.828125 C 2840.429688 53.828125 2847.773438 56.914062 2853.242188 62.34375 C 2858.671875 67.773438 2861.71875 75.15625 2861.71875 82.8125 Z M 2861.71875 82.8125 " transform="matrix(0.1,0,0,-0.1,0,99)"/>
<path style=" stroke:none;fill-rule:evenodd;fill:rgb(100%,0%,0%);fill-opacity:1;" d="M 258.832031 36.082031 C 258.832031 35.3125 258.527344 34.574219 257.984375 34.03125 C 257.441406 33.488281 256.703125 33.183594 255.933594 33.183594 C 255.164062 33.183594 254.429688 33.488281 253.886719 34.03125 C 253.34375 34.574219 253.035156 35.3125 253.035156 36.082031 C 253.035156 36.851562 253.34375 37.585938 253.886719 38.128906 C 254.429688 38.671875 255.164062 38.980469 255.933594 38.980469 C 256.703125 38.980469 257.441406 38.671875 257.984375 38.128906 C 258.527344 37.585938 258.832031 36.851562 258.832031 36.082031 "/>
<path style="fill:none;stroke-width:3.6;stroke-linecap:square;stroke-linejoin:miter;stroke:rgb(30.004883%,30.004883%,30.004883%);stroke-opacity:1;stroke-miterlimit:3.25;" d="M 2588.320312 629.179688 C 2588.320312 636.875 2585.273438 644.257812 2579.84375 649.6875 C 2574.414062 655.117188 2567.03125 658.164062 2559.335938 658.164062 C 2551.640625 658.164062 2544.296875 655.117188 2538.867188 649.6875 C 2533.4375 644.257812 2530.351562 636.875 2530.351562 629.179688 C 2530.351562 621.484375 2533.4375 614.140625 2538.867188 608.710938 C 2544.296875 603.28125 2551.640625 600.195312 2559.335938 600.195312 C 2567.03125 600.195312 2574.414062 603.28125 2579.84375 608.710938 C 2585.273438 614.140625 2588.320312 621.484375 2588.320312 629.179688 Z M 2588.320312 629.179688 " transform="matrix(0.1,0,0,-0.1,0,99)"/>
<path style=" stroke:none;fill-rule:evenodd;fill:rgb(0%,0%,0%);fill-opacity:1;" d="M 286.171875 8.742188 C 286.171875 7.972656 285.867188 7.238281 285.324219 6.691406 C 284.777344 6.148438 284.042969 5.84375 283.273438 5.84375 C 282.503906 5.84375 281.765625 6.148438 281.222656 6.691406 C 280.679688 7.238281 280.375 7.972656 280.375 8.742188 C 280.375 9.511719 280.679688 10.246094 281.222656 10.792969 C 281.765625 11.335938 282.503906 11.640625 283.273438 11.640625 C 284.042969 11.640625 284.777344 11.335938 285.324219 10.792969 C 285.867188 10.246094 286.171875 9.511719 286.171875 8.742188 "/>
<path style="fill:none;stroke-width:3.6;stroke-linecap:square;stroke-linejoin:miter;stroke:rgb(30.004883%,30.004883%,30.004883%);stroke-opacity:1;stroke-miterlimit:3.25;" d="M 2861.71875 902.578125 C 2861.71875 910.273438 2858.671875 917.617188 2853.242188 923.085938 C 2847.773438 928.515625 2840.429688 931.5625 2832.734375 931.5625 C 2825.039062 931.5625 2817.65625 928.515625 2812.226562 923.085938 C 2806.796875 917.617188 2803.75 910.273438 2803.75 902.578125 C 2803.75 894.882812 2806.796875 887.539062 2812.226562 882.070312 C 2817.65625 876.640625 2825.039062 873.59375 2832.734375 873.59375 C 2840.429688 873.59375 2847.773438 876.640625 2853.242188 882.070312 C 2858.671875 887.539062 2861.71875 894.882812 2861.71875 902.578125 Z M 2861.71875 902.578125 " transform="matrix(0.1,0,0,-0.1,0,99)"/>
</g>
</svg>
